<?xml version="1.0" standalone="no"?>
<!DOCTYPE svg PUBLIC "-//W3C//DTD SVG 20010904//EN"
 "http://www.w3.org/TR/2001/REC-SVG-20010904/DTD/svg10.dtd">
<svg version="1.0" xmlns="http://www.w3.org/2000/svg"
 width="16.000000pt" height="16.000000pt" viewBox="0 0 16.000000 16.000000"
 preserveAspectRatio="xMidYMid meet">

<g transform="translate(0.000000,16.000000) scale(0.100000,-0.100000)"
fill="#000000" stroke="none">
<path d="M0 128 c0 -17 1 -29 3 -27 2 2 11 16 20 32 17 26 17 27 -3 27 -16 0
-20 -7 -20 -32z"/>
<path d="M68 148 c18 -18 15 -25 -9 -24 -12 1 -24 -6 -26 -14 -4 -13 -3 -13 6
0 9 13 12 13 23 1 10 -11 10 -14 1 -18 -15 -5 -17 -23 -4 -23 5 0 12 9 16 19
5 16 12 18 45 14 39 -6 40 -5 40 26 0 31 0 31 -52 31 -40 0 -49 -3 -40 -12z"/>
<path d="M0 33 l0 -33 80 0 c79 0 80 0 80 25 0 14 -4 25 -10 25 -5 0 -10 -6
-10 -12 0 -9 -4 -8 -10 2 -8 12 -11 13 -19 1 -7 -10 -9 -11 -13 -1 -2 7 -18
14 -36 14 -35 1 -43 -13 -12 -21 23 -6 27 -23 6 -23 -8 0 -24 12 -35 28 l-20
27 -1 -32z"/>
</g>
</svg>
